# xmcd
# 
# Track frame offsets:
#     150
#     11723
#     32792
#     52370
#     68296
#     86864
#     107282
#     121906
#     147408
#     159204
#     172703
#     180946
# 
# Disc length: 2624
# 
# Revision: 1
# Processed by: cddbd v1.5.2PL0 Copyright (c) Steve Scherf et al.
# Submitted via: BonkEnc v1.0
# 
DISCID=8e0a3e0c
DTITLE=吉田兄弟 - Yoshida Brothers
DYEAR=0
DGENRE=Classic Rock
TTITLE0=ERGHEN DIADO (SONG OF SCHOPSKO)
TTITLE1=冬の桜
TTITLE2=PASSION
TTITLE3=十三の砂山
TTITLE4=BY THIS RIVER
TTITLE5=OVERLAND BLUES
TTITLE6=CANON
TTITLE7=MORRICONE
TTITLE8=OH MY LOVE
TTITLE9=HIT SONG
TTITLE10=津軽甚句
TTITLE11=心に抱かれて
EXTD=
EXTT0=
EXTT1=
EXTT2=
EXTT3=
EXTT4=
EXTT5=
EXTT6=
EXTT7=
EXTT8=
EXTT9=
EXTT10=
EXTT11=
PLAYORDER=
